# xmcd
#
# Track frame offsets:
#	150
#	16576
#	30448
#	49427
#	75271
#	92748
#	112879
#	132172
#	151788
#	166678
#	179966
#	202734
#	217074
#	233058
#	247971
#	262152
#	277424
#	291239
#	319564
#	339051
#
# Disc length: 4728 seconds
#
# Revision: 1
# Processed by: cddbd v1.4PL0 Copyright (c) Steve Scherf et al.
# Submitted via: MusicWizard 6.0.0
#
DISCID=0c127614
DTITLE=Various Artist - Bravo Hits 37 [CD 1/2)
DYEAR=1900
DGENRE=
TTITLE0=Ronan Keating125 - If Tomorrow Never Comes125
TTITLE1=Wonderwall - Just More
TTITLE2=N Sync - Girlfriend
TTITLE3=Celine Dion - A New Day Has Come
TTITLE4=Sophie Ellis Bextor - Murder On The Dancefloor
TTITLE5=Madhouse - Like A Prayer
TTITLE6=Master P. Feat. Webbie - Ooohhhwee
TTITLE7=P.O.D. - Youth Of The Nation
TTITLE8=Shakira - Whenever, Wherever
TTITLE9=No Angels - Like Ice In The Sunshine
TTITLE10=Atb - You're Not Alone
TTITLE11=Brosis - Do You
TTITLE12=Sylver - In Your Eyes
TTITLE13=Moby - We Are All Made Of Stars
TTITLE14=Missy Elliot Feat. Eve - 4 My People
TTITLE15=Kosheen - Catch
TTITLE16=Members Of Mayday - Culture Flash
TTITLE17=Jan Wayne - Because The Night
TTITLE18=Dj's At Work - Time To Wonder
TTITLE19=Scooter - Nessaja
EXTD=
EXTT0=
EXTT1=
EXTT2=
EXTT3=
EXTT4=
EXTT5=
EXTT6=
EXTT7=
EXTT8=
EXTT9=
EXTT10=
EXTT11=
EXTT12=
EXTT13=
EXTT14=
EXTT15=
EXTT16=
EXTT17=
EXTT18=
EXTT19=
PLAYORDER=
